<?xml version="1.0" encoding="UTF-8" standalone="no"?>
<!-- Created with Inkscape (http://www.inkscape.org/) -->

<svg
   xmlns:dc="http://purl.org/dc/elements/1.1/"
   xmlns:cc="http://creativecommons.org/ns#"
   xmlns:rdf="http://www.w3.org/1999/02/22-rdf-syntax-ns#"
   xmlns:svg="http://www.w3.org/2000/svg"
   xmlns="http://www.w3.org/2000/svg"
   xmlns:xlink="http://www.w3.org/1999/xlink"
   xmlns:sodipodi="http://sodipodi.sourceforge.net/DTD/sodipodi-0.dtd"
   xmlns:inkscape="http://www.inkscape.org/namespaces/inkscape"
   width="300"
   height="700"
   id="svg2"
   version="1.1"
   inkscape:version="0.48.0 r9654"
   sodipodi:docname="vine.svg">
  <defs
     id="defs4">
    <linearGradient
       inkscape:collect="always"
       xlink:href="#linearGradient3856"
       id="linearGradient3883"
       gradientUnits="userSpaceOnUse"
       gradientTransform="translate(-499.89266,459.63049)"
       x1="1254.0881"
       y1="201.30313"
       x2="670.74127"
       y2="50.615551" />
    <linearGradient
       id="linearGradient3856"
       inkscape:collect="always">
      <stop
         id="stop3858"
         offset="0"
         style="stop-color:#759200;stop-opacity:1" />
      <stop
         id="stop3860"
         offset="1"
         style="stop-color:#263000;stop-opacity:1" />
    </linearGradient>
    <linearGradient
       gradientTransform="translate(-180,-105.71429)"
       gradientUnits="userSpaceOnUse"
       y2="50.615551"
       x2="670.74127"
       y1="201.30313"
       x1="1254.0881"
       id="linearGradient3864"
       xlink:href="#linearGradient3856"
       inkscape:collect="always" />
    <inkscape:perspective
       sodipodi:type="inkscape:persp3d"
       inkscape:vp_x="0 : 0.5 : 1"
       inkscape:vp_y="0 : 1000 : 0"
       inkscape:vp_z="1 : 0.5 : 1"
       inkscape:persp3d-origin="0.5 : 0.33333333 : 1"
       id="perspective3874" />
    <inkscape:perspective
       id="perspective3893"
       inkscape:persp3d-origin="372.04724 : 350.78739 : 1"
       inkscape:vp_z="744.09448 : 526.18109 : 1"
       inkscape:vp_y="0 : 1000 : 0"
       inkscape:vp_x="0 : 526.18109 : 1"
       sodipodi:type="inkscape:persp3d" />
  </defs>
  <sodipodi:namedview
     id="base"
     pagecolor="#ffffff"
     bordercolor="#666666"
     borderopacity="1.0"
     inkscape:pageopacity="0.0"
     inkscape:pageshadow="2"
     inkscape:zoom="0.62"
     inkscape:cx="34.677419"
     inkscape:cy="371.42857"
     inkscape:document-units="px"
     inkscape:current-layer="layer1"
     showgrid="false"
     inkscape:window-width="1226"
     inkscape:window-height="741"
     inkscape:window-x="0"
     inkscape:window-y="24"
     inkscape:window-maximized="0" />
  <metadata
     id="metadata7">
    <rdf:RDF>
      <cc:Work
         rdf:about="">
        <dc:format>image/svg+xml</dc:format>
        <dc:type
           rdf:resource="http://purl.org/dc/dcmitype/StillImage" />
        <dc:title></dc:title>
      </cc:Work>
    </rdf:RDF>
  </metadata>
  <g
     inkscape:label="Layer 1"
     inkscape:groupmode="layer"
     id="layer1"
     transform="translate(0,-352.36218)">
    <rect
       style="fill:#e9f6f6;fill-opacity:0.87843138"
       id="rect3882"
       width="301.61292"
       height="701.61292"
       x="1.6129032"
       y="1.6129032"
       transform="translate(0,352.36218)" />
    <g
       transform="matrix(0,0.91424085,-0.99543712,0,807.91785,362.84584)"
       id="layer1-2"
       inkscape:label="Capa 1">
      <path
         id="path3809"
         d="m 698.50544,510.74604 c -13.0847,30.09219 -79.3123,27.10307 -29.8125,92.8125 0.1229,0.16325 -1.1169,5.07162 -1.875,8.3125 -20.0275,-5.08281 -40.8515,-7.00829 -59.9063,2.90625 -23.3633,11.91894 -45.0688,27.33362 -67.75,40.71875 -1.9371,-2.26228 -4.7321,-4.82513 -5.125,-5.3125 -0.036,0.19297 -0.088,0.36807 -0.125,0.5625 0.014,-0.36308 -0.017,-0.78904 0,-0.71875 -0.023,-0.002 0.081,0.1022 0.125,0.15625 10.1592,-54.5088 -15.9875,-51.11048 -44,-74.53125 11.5761,26.94798 -30.93614,68.23033 42.1563,76.25 0.1626,0.0178 2.1174,3.06485 3.7187,5.5 -17.4253,10.08023 -35.51,18.83154 -55.40625,23.74999 -30.09623,7.7906 -63.37574,12.00469 -94.59375,7.09375 1.63251,-1.58526 4.10626,-7.06552 4.53125,-7.71875 -0.25584,0.0323 -0.49095,0.0623 -0.75,0.0937 -0.1789,0.0302 -0.32403,0.008 -0.21875,-0.125 0.68608,-0.8664 1.77834,-2.39187 2.875,-4.03125 -1.55957,2.46031 -2.58324,4.16919 -2.65625,4.15625 0.3389,-0.0572 0.9161,-0.29449 0.84375,-0.25 -0.004,-0.0209 -0.0577,0.10082 -0.0937,0.15625 49.29342,-6.2183 39.25168,-27.59698 51.59375,-57.90624 -19.84416,17.24361 -66.681,-7.77884 -53.5625,56.81249 0.0476,0.23471 -5.6797,6.95158 -5.625,7.1875 0.007,0.0299 0.51496,0.71099 1.09375,1.28125 -21.18578,-3.60623 -41.36004,-11.48966 -58.84375,-25.40624 -11.82787,-10.81897 -26.56916,-17.6317 -42,-19.65625 0.41535,-2.25886 0.58574,-5.02815 0.6875,-5.40625 -0.13956,0.0733 -0.26527,0.14531 -0.40625,0.21875 0.22718,-0.16548 0.4719,-0.38793 0.4375,-0.34375 -0.008,-0.013 -0.0214,0.0882 -0.0312,0.125 37.97049,-19.93785 23.37942,-34.14214 24.1875,-62.375 -10.8237,19.93973 -56.26512,13.88599 -26.125,62.125 0.0717,0.11473 -0.96608,3.12882 -1.6875,5.3125 -10.00667,-0.91353 -20.2282,0.20061 -30.09375,3.5625 -24.44254,5.63168 -47.10947,17.77926 -70.59375,26.59374 -0.0645,-0.94228 -4.59043,-3.30721 -4.625,-3.4375 0.006,0.10654 0.0258,0.20505 0.0312,0.3125 -0.038,-0.17551 -0.11011,-0.37525 -0.0937,-0.34375 -0.004,5.5e-4 0.0617,0.0283 0.0625,0.0312 -1.58245,-29.42889 -14.64764,-24.40056 -32.0625,-32.99999 9.36261,12.48554 -7.4599,39.16627 31.34375,34.15624 0.1049,-0.0136 2.18673,2.00251 3.3125,3.03125 -14.11162,5.1649 -28.56009,9.02917 -43.875,9.46875 -6.10877,-0.45287 -11.49304,-2.1918 -16.25,-4.90625 0.4573,-0.35095 0.87297,-0.68678 0.90625,-0.6875 -0.0763,-0.0246 -0.1416,-0.0372 -0.21875,-0.0625 4.9e-4,3.5e-4 0.0302,-0.0312 0.0312,-0.0312 -0.0602,-0.0152 -0.11173,-0.007 -0.0625,-0.0312 0.26176,-0.13073 0.71539,-0.39391 1.15625,-0.65625 -0.50853,0.33043 -1.06125,0.68439 -1.09375,0.6875 0.10347,0.0262 0.27486,0.0597 0.25,0.0625 5.5e-4,-0.002 -0.0605,0.0312 -0.0625,0.0312 14.41838,4.65465 14.42079,-2.56704 21.75,-9.34375 -7.71272,2.19738 -17.42642,-10.7605 -22.15625,8.78125 -0.01,0.0401 -0.69091,0.38662 -1.375,0.71875 -7.43463,-4.50276 -13.2293,-11.41654 -17.656251,-19.43749 1.21307,-0.47442 3.967751,-3.58029 4.125001,-3.625 -0.16013,-0.0294 -0.30674,-0.0632 -0.46875,-0.0937 9.9e-4,5.2e-4 0.0294,-0.0308 0.0312,-0.0312 -0.12365,-0.0139 -0.21545,-10e-4 -0.125,-0.0625 0.5636,-0.38028 1.48814,-1.11458 2.4375,-1.875 -1.35867,1.13734 -2.2369,1.92177 -2.3125,1.9375 0.20779,0.0234 0.54704,0.0509 0.5,0.0625 5.4e-4,-0.005 -0.0575,0.0611 -0.0625,0.0625 29.09083,5.34505 27.24594,-8.60937 39.71875,-23.59375 -14.38121,6.21492 -36.45747,-16.45902 -40.65625,22.59375 -0.0134,0.12505 -3.325611,2.22789 -4.156251,2.84375 -5.01755,-9.717 -8.09678,-20.87074 -9.656247,-31.3125 0.711047,0.0872 3.198717,-2.76879 3.281247,-2.75 -0.0634,-0.0117 -0.12373,-0.0194 -0.1875,-0.0312 0.10953,4.8e-4 0.24041,-0.005 0.21875,0 2.7e-4,-0.003 -0.0296,0.0316 -0.0312,0.0312 21.596051,3.97019 20.211511,-6.37869 29.468751,-17.5 -10.67248,4.61217 -27.040281,-12.20031 -30.156251,16.78125 -0.009,0.08 -1.92268,1.27983 -2.843747,1.90625 -0.34588,-2.54841 -0.61185,-5.05211 -0.78125,-7.46875 1.3355,-15.29792 3.954737,-31.85402 -6.65625,-43.84375 0.0367,-0.0352 0.10644,-0.0556 0.125,-0.0937 0.2635,-0.54244 -2.23445,-3.01553 -2.28125,-3.15625 -0.0134,0.0523 -0.0176,0.10361 -0.0312,0.15625 0.01,-0.11371 -0.004,-0.24105 0,-0.21875 -0.004,-6.9e-4 0.0297,0.0579 0.0312,0.0625 4.92421,-19.20322 -4.47372,-18.60631 -13.90625,-27.625 3.47019,9.83751 -12.48284,23.46352 12.875,28.125 0.40254,0.46711 0.78984,0.9323 1.15625,1.40625 0.47935,0.85081 1.00981,1.77336 1.0625,1.78125 0.004,5.9e-4 0.12782,-0.0156 0.1875,-0.0312 6.88457,10.23819 6.17459,21.9379 4.5,33.96875 -0.74703,-0.50286 -1.86861,-1.22174 -1.875,-1.28125 -2.42691,-22.57261 -15.21887,-9.50151 -23.53125,-13.09375 7.20221,8.65247 6.17471,16.68945 22.9375,13.625 -0.003,-7.5e-4 0.029,3.4e-4 0.0312,0 0.0347,-0.0377 1.48218,1.60276 2.25,2.03125 -1.83909,12.7873 -4.48731,25.92631 0.0312,38.0625 -0.58547,-0.38813 -1.08937,-0.70919 -1.09375,-0.75 -3.4441,-32.03344 -21.57866,-13.46465 -33.375,-18.5625 10.2322,12.2926 8.72258,23.73248 32.59375,19.34375 -0.002,5.3e-4 -0.0315,-0.0339 -0.0312,-0.0312 -0.0308,-0.008 0.15341,-0.0255 0.3125,-0.0312 -0.0981,0.0184 -0.18401,0.0446 -0.28125,0.0625 0.0707,-0.0247 2.0236,2.14612 3.125,2.8125 0.19331,0.40548 0.38226,0.81584 0.59375,1.21875 1.71597,13.08626 8.118807,23.23242 17.062498,30.15624 -0.98429,0.0513 -1.90179,0.10154 -1.9375,0.0625 -21.233138,-23.2121 -24.739658,1.90846 -36.968748,4.71875 15.16349,3.7561 20.55694,13.62238 36.812498,-3.65625 -0.003,0.001 -0.065,-0.003 -0.0625,0 -0.0218,0.009 0.0947,-0.0564 0.1875,-0.125 -0.0414,0.0442 -0.0838,0.0812 -0.125,0.125 0.0957,-0.05 3.12626,0.63484 4.25,0.4375 9.62264,6.62558 21.74394,9.78195 34,9.25 -0.70475,0.65856 -1.35231,1.22572 -1.40625,1.21875 -38.803651,-5.01003 -21.98114,21.63946 -31.34375,34.125 17.42011,-8.60202 30.4865,-3.54145 32.0625,-33 -7.5e-4,0.003 -0.0666,0.0307 -0.0625,0.0312 -0.0163,0.0313 0.0559,-0.13823 0.0937,-0.3125 -0.005,0.0979 -0.026,0.18412 -0.0312,0.28125 0.0252,-0.0985 2.63622,-1.47562 3.9375,-2.5625 5.27685,-0.51376 10.54015,-1.70137 15.59375,-3.625 20.42545,-4.25424 40.7926,-11.87314 61.375,-17.09375 -0.8113,2.14733 -1.66492,4.36672 -1.78125,4.40625 -60.92727,20.69958 -16.77792,47.90871 -21.5625,73.125 19.49644,-25.31825 42.48125,-27.34759 23.46875,-72 -0.0329,0.0638 -0.11457,0.16322 -0.0937,0.15625 -0.002,0.0815 -0.0716,-0.49406 -0.1875,-0.8125 0.0449,0.053 -0.84558,1.66317 -2.0625,4 0.78625,-1.6255 1.47268,-3.17718 1.84375,-4.125 0.0623,-0.15893 0.15462,-0.0512 0.21875,0.125 0.0978,0.2268 0.1856,0.43162 0.28125,0.65625 0.31346,-0.60791 2.80076,-4.12302 3.875,-6.5 18.33174,-4.34394 36.85842,-6.51186 55.78125,-2.40625 12.2049,4.34148 22.1534,12.29698 31.84375,20.6875 -0.7672,-0.0424 -1.66253,0.10873 -1.6875,0.125 -0.17024,0.11144 -0.61592,7.51025 -0.78125,7.625 -45.49853,31.58572 -2.52549,43.6257 -0.5,65.625 10.12217,-25.57332 28.63244,-32.69726 2.3125,-65.125 -0.005,0.0353 -0.0121,0.1333 0,0.125 0.0175,0.0669 -0.20459,-0.35466 -0.375,-0.59375 0.0377,0.0625 -0.30476,1.48829 -0.71875,3.5 -0.20902,1.23054 -0.446,2.47039 -0.6875,3.59375 0.25848,-1.47884 0.4688,-2.531 0.6875,-3.59375 0.24192,-1.42422 0.42302,-2.77587 0.5,-3.59375 0.0141,-0.15003 0.12064,-0.0439 0.21875,0.0937 0.13102,0.15998 0.24614,0.30998 0.375,0.46875 0.0715,-0.51676 1.81043,-5.36024 1.75,-7.3125 12.52117,10.89876 24.72793,22.35225 40.9375,27.5625 26.44419,9.74675 54.36552,13.64445 82.21875,12.65625 -0.19123,2.33004 -0.36601,4.74118 -0.46875,4.8125 -54.08557,37.54692 -3.00151,51.84878 -0.59375,78 12.03114,-30.39627 34.02136,-38.8698 2.75,-77.40625 -0.004,0.035 -0.0445,0.13408 -0.0312,0.125 0.0157,0.0598 -0.12398,-0.23001 -0.28125,-0.5 0.10638,0.13029 0.20733,0.24539 0.3125,0.375 0.0423,-0.37466 0.94958,-3.06715 1.5625,-5.5625 40.15217,-1.97083 80.07505,-13.99126 115.18755,-33.21875 19.774,-9.89645 41.1047,-22.70374 63.25,-25.8125 -0.1753,2.12629 -0.374,4.12169 -0.4688,4.1875 -58.9924,40.95332 -3.2512,56.53876 -0.625,85.0625 13.1245,-33.15866 37.1299,-42.38954 3,-84.4375 -0.01,0.0497 -0.047,0.16744 -0.031,0.15625 0.017,0.0656 -0.1399,-0.26681 -0.3125,-0.5625 0.1163,0.14243 0.2288,0.26457 0.3438,0.40625 0.062,-0.41896 0.8811,-2.77102 1.5312,-5.21875 9.4843,-0.88249 19.108,0.0957 28.8125,3.96875 23.9128,8.93226 50.5398,25.64653 76.0625,11.65625 12.3764,-8.15269 32.4804,-17.42267 27.8125,-35.18749 -0.6076,-19.23123 -1.2361,-38.45627 -1.8438,-57.6875 -12.8796,20.2064 -37.0105,36.36797 -61.5312,27.21875 -6.0652,-1.99212 -12.3135,-3.97167 -18.6562,-5.71875 0.4876,-3.25044 0.44,-8.24935 0.5312,-9.25 -0.1767,0.11344 -0.3528,0.19871 -0.5312,0.3125 0.3065,-0.267 0.6065,-0.56802 0.5625,-0.5 -0.02,-0.0269 -0.019,0.0528 -0.031,0.1875 52.2035,-33.50887 29.3901,-52.18746 27,-92.96875 z m -295.3438,20.4375 c -7.92645,0.13327 -18.04341,4.75601 -31.90625,17.0625 -0.17912,0.15898 -8.85462,-1.38443 -9.03125,-1.21875 -0.0379,0.0355 -1.02009,2.18176 -0.625,3 0.63712,1.32004 8.88465,0.44183 9.71875,0.5 -0.11184,-0.14681 -0.2002,-0.28907 -0.3125,-0.4375 0.23295,0.2276 0.52589,0.46826 0.46875,0.4375 0.0146,-0.0131 -0.10123,0.004 -0.15625,0 30.11782,39.5341 43.55519,20.09455 75.96875,15.5625 -17.87729,-6.11905 -23.8685,-35.24684 -44.125,-34.90625 z m 287.6875,2.3125 c 2.8014,0.0147 4.722,1.44382 3.375,1.0625 -16.1773,-4.80273 -18.3312,33.64273 -19.7812,43.53125 4.5713,-14.2798 16.9227,-7.9331 18.625,-1.6875 -3.4241,-5.36548 -14.7795,-11.85337 -18.1563,2.28125 -0.6905,2.89022 -1.2408,5.60281 -1.7187,8.1875 0.3189,-3.26258 0.6464,-12.3688 1.9375,-17.6875 1.7672,-7.28046 -11.1187,-13.21088 -17.25,-9.65625 8.53,-6.25255 17.1013,3.93007 17.6875,5.8125 0.1636,-1.00527 3.4178,-20.72216 8.2187,-27.8125 2.1547,-3.18234 4.8836,-4.04272 7.0625,-4.03125 z m -15.2812,31.84375 c 0,0.026 -0.062,0.34375 -0.062,0.34375 0.1055,4.2e-4 0.1202,-0.15821 0.062,-0.34375 z m -271.12505,-29.8125 c 0.50031,0.33023 0.90961,0.73838 1.25,1.21875 -0.36307,-0.4164 -0.77017,-0.81406 -1.25,-1.21875 z m 1.28125,1.28125 c 5.54826,6.44909 -2.14199,14.00238 -3.53125,14.5 0.73844,0.0598 16.79531,1.36385 22.78125,4.75 6.12557,3.46512 2.64399,10.08083 3.03125,8.125 2.79475,-13.22791 -28.0724,-12.44691 -36.0625,-12.96875 11.69766,2.73197 7.44058,12.98879 2.5625,14.75 4.0645,-3.07953 8.5361,-12.55635 -2.96875,-14.34375 -2.33535,-0.36282 -4.54316,-0.62895 -6.625,-0.84375 -0.50121,-0.008 -0.91581,-0.0512 -1.03125,-0.0937 0.32961,0.0316 0.69326,0.0589 1.03125,0.0937 2.65134,0.042 9.90451,-0.28004 14.21875,0.40625 5.92285,0.94215 9.81253,-9.7013 6.59375,-14.375 z m -3.53125,14.5 c -0.0172,-10e-4 -0.25,-0.0312 -0.25,-0.0312 0.006,0.0785 0.12323,0.0766 0.25,0.0312 z m -95.46875,-13.65625 c -0.14201,-0.0223 -3.89025,3.64321 -4.03125,3.625 -38.80365,-5.01003 -21.98114,21.63946 -31.34375,34.125 17.41377,-8.5989 30.4787,-3.54604 32.0625,-32.96875 -6.3e-4,0.003 -0.0665,0.0307 -0.0625,0.0312 -0.0164,0.0315 0.0558,-0.16825 0.0937,-0.34375 -0.005,0.10868 -0.0255,0.20473 -0.0312,0.3125 0.029,-0.12996 4.75878,-2.63344 4.625,-3.53125 -0.0795,-0.5335 -1.28208,-1.24521 -1.3125,-1.25 z m -136.5,0.9375 c 6.41353,19.89273 -26.51087,46.33479 24.8125,56.90625 0.18649,0.0384 3.34172,6.31005 3.53125,6.34375 0.0405,0.007 1.85421,-0.39033 2.1875,-1.03125 0.54302,-1.04443 -4.03567,-5.96238 -4.3125,-6.4375 -0.0395,0.13835 -0.0847,0.26686 -0.125,0.40625 0.0341,-0.25667 0.0549,-0.55102 0.0625,-0.5 -0.013,-0.003 0.0472,0.0675 0.0625,0.0937 10.83581,-37.97492 -7.91128,-37.29668 -26.21875,-55.78125 z m 219.34375,0.59375 c 3.59757,0.83713 1.20849,9.49485 -5.40625,11.34375 -0.21545,0.0602 -0.32228,0.0893 -0.3125,0.125 -1.77791,-0.17006 -3.38625,-0.28363 -4.875,-0.375 0.95734,0.0321 1.85856,0.0456 2.5625,0.0312 5.82179,-0.11888 11.89866,-7.96262 8.03125,-11.125 z m -86.125,2.625 c 0.0262,0.0109 0.0106,0.0726 0,0.15625 0.01,0.0388 -0.82565,0.60826 -2,1.46875 -0.60999,0.48113 -1.24367,0.96773 -1.84375,1.40625 0.74127,-0.57394 1.28539,-0.99712 1.84375,-1.40625 0.79005,-0.62316 1.51483,-1.20647 1.9375,-1.59375 0.0268,-0.0246 0.0495,-0.0366 0.0625,-0.0312 z m -12.75,1.125 c -0.84165,2.84364 4.75955,4.66741 7.65625,2.78125 0.21686,-0.14121 0.51615,-0.34365 0.78125,-0.53125 -0.56667,0.4451 -1.17929,0.94296 -1.8125,1.46875 0.0895,10e-4 -0.071,0.12658 -0.375,0.34375 0.12719,-0.1069 0.24991,-0.23988 0.375,-0.34375 -0.0298,-3.9e-4 -0.1036,0.003 -0.1875,0.0312 -3.86368,1.30201 -7.92337,-2.13758 -6.4375,-3.75 z m -8.53125,3.15625 c -0.0937,0.33506 -0.1474,0.66272 -0.1875,0.96875 -0.13484,3.39131 5.41244,7.4347 8.03125,4.96875 1.87335,-1.76401 5.46733,-4.01719 6.78125,-4.9375 -0.93733,0.79124 -1.89667,1.64997 -2.90625,2.59375 -5.04893,4.71985 0.32055,7.87756 3.34375,8.03125 -2.98213,0.76501 -8.51554,-2.84598 -3.6875,-8.09375 -3.74677,2.92482 -19.13341,12.8482 -13.34375,18.40625 0.84329,0.8305 -3.09872,-1.25354 -1.25,-5 1.80483,-3.65755 9.23786,-9.65063 9.59375,-9.9375 -0.86833,0.21715 -7.23073,-0.93157 -6.5625,-6.03125 0.013,-0.32751 0.0605,-0.65954 0.1875,-0.96875 z m 6.375,7 c 0.08,-0.02 0.14863,-0.0526 0.125,-0.0937 0,0 -0.11635,0.0868 -0.125,0.0937 z M 68.724142,547.55854 c 0.0116,0.0143 -0.0366,0.0484 -0.125,0.0937 -2.11229,1.04834 -1.80263,3.47383 -0.625,6.0625 1.5141,3.32828 4.44941,6.95925 5.46875,8.4375 -2.03753,-4.33397 2.24316,-5.52774 4,-4.4375 -1.96802,-0.50987 -6.03529,0.4286 -3.75,4.46875 0.47769,0.8445 0.94657,1.6225 1.40625,2.34375 -0.60429,-0.80128 -2.5692,-3.07688 -3.4375,-4.625 -1.13389,-2.02168 -5.20804,-0.73666 -6.0625,1.3125 -0.0345,0.0829 -0.0389,0.16474 -0.0625,0.25 -0.0365,0.20577 -0.055,0.42056 -0.0625,0.65625 -0.0195,-0.22764 0.003,-0.44028 0.0625,-0.65625 0.0156,-0.0878 0.0421,-0.16738 0.0625,-0.25 0.78464,-3.17625 5.02134,-2.58195 5.375,-2.28125 -0.0804,-0.12035 -1.77706,-2.69841 -3,-5.21875 -0.55266,-1.13896 -1.02436,-2.24463 -1.15625,-3.09375 -0.37683,-2.42595 1.82527,-3.16261 1.90625,-3.0625 z m 301.999998,2.125 c 0.013,-0.0198 0.0643,-0.009 0.125,0 0.96518,0.14009 2.57095,0.28664 4.28125,0.40625 1.12519,0.0394 2.21407,0.0964 3.71875,0.1875 -1.20339,-0.0421 -2.46961,-0.10015 -3.71875,-0.1875 -2.48039,-0.087 -4.2267,-0.0925 -4.25,-0.15625 -0.0929,-0.10538 -0.1823,-0.21034 -0.15625,-0.25 z m -192.3125,1.90625 c 0.0223,0.0291 -0.04,0.10196 -0.21875,0.1875 -9.75472,4.51459 5.40526,23.78778 8.875,29.125 -3.82631,-8.7503 4.74461,-10.89377 8.1875,-8.625 -3.89544,-1.12327 -12.05497,0.54073 -7.71875,8.71875 0.90494,1.70669 1.8116,3.25794 2.6875,4.71875 -1.18022,-1.65045 -4.92343,-6.25647 -6.5625,-9.375 -2.22281,-4.22904 -10.92468,-1.63309 -12.34375,2.65625 1.44588,-6.58146 9.86927,-5.30915 10.9375,-4.65625 -0.29086,-0.46284 -7.08827,-11.348 -7.78125,-16.78125 -0.61941,-4.85653 3.78145,-6.1728 3.9375,-5.96875 z m 3.84375,22.75 c 0.006,0.01 0.0937,0.15625 0.0937,0.15625 0.0505,-0.0441 0.0112,-0.0921 -0.0937,-0.15625 z m 475.56255,-14.78125 c -0.5506,0.40807 -1.1086,0.88497 -1.6563,1.4375 0.461,-0.58936 1.0245,-1.06215 1.6563,-1.4375 z m -585.343798,4.5 c 0.87244,-0.0783 1.8574,0.0831 2.6875,0.6875 0.0961,0.07 0.13868,0.1044 0.125,0.0625 0.51848,0.80315 0.98004,1.49306 1.40625,2.09375 -0.33611,-0.46914 -0.68129,-0.9704 -0.9375,-1.28125 -1.47648,-1.79144 -5.43585,-1.7414 -5.46875,0.25 -0.39225,-0.83259 0.73343,-1.68194 2.1875,-1.8125 z m 4.71875,3.5625 c 0.52093,0.70478 1.07575,1.41596 1.0625,1.4375 -0.015,0.071 -0.0286,0.12111 -0.0625,0.0625 -0.19998,-0.34546 -0.60212,-0.91876 -1,-1.5 z m 584.531248,10.4375 c 3.6334,-0.37073 9.8658,3.37622 11.0938,9.6875 0.053,0.27409 0.08,0.41484 0.125,0.40625 0.061,-0.34138 0.1547,-0.71394 0.2187,-1.0625 -0.067,0.65112 -0.1432,1.04817 -0.2187,1.0625 -0.3679,2.07335 -0.6524,3.95776 -0.9063,5.71875 0.1183,-1.06535 0.202,-2.07608 0.25,-2.875 0.4356,-7.25512 -8.7404,-15.61966 -13.0625,-11.125 0.3505,-1.098 1.2889,-1.68893 2.5,-1.8125 z m -490.40625,0.96875 c -0.041,0.19006 -0.0647,0.39044 -0.0937,0.59375 -0.0368,0.25716 -0.0773,0.53341 -0.0937,0.8125 -0.0159,-0.27279 0.0511,-0.54891 0.0937,-0.8125 0.0318,-0.19617 0.0323,-0.40373 0.0937,-0.59375 z m 13.71875,5.625 c 1.74344,-0.10879 3.69055,0.31258 5.3125,1.5625 0.14089,0.10856 0.23195,0.14818 0.25,0.125 -0.11472,-0.18858 -0.22765,-0.40029 -0.34375,-0.59375 0.24189,0.3396 0.37384,0.5551 0.34375,0.59375 0.56733,0.93256 1.10602,1.82139 1.625,2.625 -0.2548,-0.35442 -0.53628,-0.72582 -0.75,-1 -2.84604,-3.65131 -10.76365,-3.7805 -10.9375,0.1875 -0.73673,-1.68103 1.59426,-3.31869 4.5,-3.5 z m 7.625,4.9375 c 0.43514,0.62498 0.89957,1.32101 1.34375,2 -0.42495,-0.62001 -0.83724,-1.22729 -1.34375,-2 z m 108,0.65625 c 2.29659,-0.058 3.91164,1.31925 2.90625,0.9375 -10.85374,-4.28165 -14.6249,22.08867 -16.21875,28.8125 4.00809,-9.56062 12.10961,-4.46676 12.90625,-0.0625 -2.03553,-3.90172 -9.44843,-9.06377 -12.625,0.46875 -0.67079,2.01296 -1.22334,3.91838 -1.71875,5.71875 -0.0856,0.44442 -0.1346,0.68218 -0.1875,0.6875 -0.39433,1.46624 -0.74243,2.82414 -1.03125,4.0625 0.16196,-0.79689 0.31843,-1.53233 0.40625,-2.125 0.73662,-4.97098 -5.09623,-11.30453 -8.34375,-8.46875 1.23004,-2.94081 8.2536,0.35533 8.875,6.25 0.0202,0.192 0.062,0.28443 0.0937,0.28125 0.0599,-0.22271 0.12501,-0.4604 0.1875,-0.6875 0.41088,-2.13326 1.20956,-8.60917 2.4375,-12.25 1.65765,-4.91505 -6.88048,-9.75753 -11.3125,-7.65625 6.32302,-3.85396 11.6557,3.87963 11.84375,5.09375 0.13895,-0.54866 3.59055,-14.09964 7.34375,-18.71875 1.43629,-1.76766 3.05954,-2.30894 4.4375,-2.34375 z m -11.78125,21.0625 c -0.003,0.0112 -0.0312,0.1875 -0.0312,0.1875 0.065,0.006 0.0476,-0.0816 0.0312,-0.1875 z m -94.625,-19.3125 c 1.19723,1.73137 2.06184,2.92188 2.03125,2.96875 -0.0339,0.14461 -0.0596,0.24533 -0.125,0.125 -0.38864,-0.71557 -1.12353,-1.88346 -1.90625,-3.09375 z m 308.81255,0.75 c 0.214,-0.0275 0.2014,0.0668 -0.1563,0.28125 -13.03436,7.58994 10.7007,32.56235 16.25,39.5625 -6.4964,-11.72153 5.1728,-15.87311 10.2813,-13.15625 -5.59,-1.05701 -16.7897,2.33251 -9.6563,13.1875 1.4832,2.25695 2.964,4.33009 4.375,6.25 -1.8785,-2.16166 -7.7118,-8.08602 -10.4062,-12.21875 -3.6558,-5.60708 -15.36379,-0.85242 -16.81255,5.3125 1.17204,-9.36422 13.02495,-8.70892 14.59375,-7.9375 -0.557,-0.72583 -11.3872,-14.93948 -13.0625,-22.40625 -1.39661,-6.2246 3.6662,-8.75609 4.5938,-8.875 z m 8.4687,31.28125 c 0.014,0.0189 0.1875,0.25 0.1875,0.25 0.064,-0.0679 -0.034,-0.17454 -0.1875,-0.25 z m -435.124998,-29.875 c 0.13382,-0.0133 0.27023,0.0101 0.40625,0.0312 -0.24208,-0.009 -0.47925,0.003 -0.6875,0.0312 0.0907,-0.0241 0.18878,-0.0533 0.28125,-0.0625 z m 595.593798,0 c -0.1359,1.18785 -0.3188,2.45787 -0.5,3.71875 0.1416,-1.1633 0.2968,-2.29421 0.5,-3.71875 z m -596.000048,0.0937 c -1.81701,0.61479 -3.14397,4.05881 -1.46875,5.15625 1.24087,0.81288 2.98104,2.52893 3.6875,3.15625 -0.57743,-0.42509 -1.16872,-0.83554 -1.84375,-1.28125 -3.34668,-2.20974 -4.41635,1.24214 -4.09375,2.96875 -0.8354,-1.57905 0.44785,-5.20113 4.0625,-3.1875 -2.15756,-1.71806 -9.83534,-9.05049 -12.1875,-5.03125 -0.3544,0.58826 0.29206,-1.91086 2.65625,-1.375 2.3366,0.5296 6.83203,4.01223 6.9375,4.09375 -0.23778,-0.32215 -0.51917,-4.00219 2.25,-4.5 z m 595.437548,4 c -0.4214,3.52404 -0.6308,5.94441 -0.7188,5.96875 -0.1933,0.13869 -0.361,0.21179 -0.3125,0 0.3005,-1.31575 0.6829,-3.5903 1.0313,-5.96875 z m -592.125048,0.21875 c 0.14198,-0.0203 0.29863,0.0162 0.4375,0.0937 -1.71844,-0.0899 -1.98768,3.30846 -0.53125,4.6875 0.21307,0.20174 0.55969,0.4859 0.875,0.75 -0.45652,-0.37092 -0.97171,-0.74538 -1.5625,-1.1875 -0.0353,-0.0143 -0.10962,-0.0615 -0.21875,-0.15625 0.0638,0.0472 0.15628,0.0783 0.21875,0.125 0.007,-0.01 0.007,-0.002 -0.0312,-0.0625 -1.10053,-1.75327 -0.18133,-4.10823 0.8125,-4.25 z m 1.125,5.8125 c 0.34768,0.28679 0.32251,0.26268 0.5625,0.46875 0.40682,0.31769 0.84544,0.64496 1.09375,0.8125 0.0491,0.0331 9.4e-4,0.0539 -0.0625,0.0625 -0.0168,0.009 -0.58796,-0.49439 -1.03125,-0.875 -0.21337,-0.16663 -0.34447,-0.29107 -0.5625,-0.46875 z m 196.562498,1.9375 c -0.40464,0.24828 -0.80733,0.55787 -1.21875,0.90625 0.353,-0.37821 0.76101,-0.68573 1.21875,-0.90625 z m -179.187501,1.1875 c 0.21625,-0.0336 0.41351,-0.002 0.625,0.0312 0.14301,0.0127 0.27431,0.038 0.40625,0.0625 3.485291,0.64813 3.207721,5.23675 2.906251,5.75 0.20541,-0.15856 5.89387,-4.54305 8.875,-5.21875 3.03544,-0.688 3.86127,2.50529 3.40625,1.75 -3.02,-5.1604 -12.88611,4.26289 -15.656251,6.46875 4.640941,-2.58535 6.291341,2.06637 5.218751,4.09375 0.41419,-2.21684 -0.92186,-6.68089 -5.218751,-3.84375 -0.86524,0.57129 -1.66589,1.14255 -2.40625,1.6875 0.89293,-0.78939 3.14458,-3.01082 4.750001,-4.0625 2.15086,-1.40903 0.45791,-5.83566 -1.875001,-6.625 -0.12693,-0.043 -0.27615,-0.0421 -0.40625,-0.0625 -0.20627,-0.0183 -0.39466,-0.0398 -0.625,-0.0312 z m -3.25,5.5 c 1.27601,0.18202 2.47549,3.18644 1.0625,5.4375 -0.0701,0.11172 -0.0766,0.17458 -0.0312,0.15625 -0.84734,0.6339 -1.58811,1.1712 -2.21875,1.6875 0.48932,-0.4045 1.02171,-0.82008 1.34375,-1.125 1.86995,-1.77059 1.51885,-6.14668 -0.6875,-6.03125 0.1783,-0.0995 0.34896,-0.15101 0.53125,-0.125 z m -93.2812467,2.46875 c -4.5348999,-0.004 -8.3177999,2.36994 -9.5312999,13.65625 -0.009,0.082 -2.5837004,1.69815 -2.5937004,1.78125 -0.001,0.0178 0.2411,0.78916 0.5313,0.90625 0.4872004,0.19654 2.5066004,-2.11457 2.5937004,-2.125 -0.0662,-0.0122 -0.1208,-0.0187 -0.1875,-0.0312 0.1121,0.004 0.2405,-0.005 0.2188,0 2e-4,-0.003 -0.0292,0.031 -0.0313,0.0312 16.8298999,3.09688 15.7572999,-4.96146 22.9686996,-13.625 -4.1562,1.79612 -9.4337997,-0.59003 -13.9686997,-0.59375 z m -3.6249999,2.71875 c 0.0413,0.004 0.084,0.0241 0.125,0.0312 2.96129992,0.27995 2.79839992,3.94307 2.56249992,4.5 0.2562,-0.19737 4.61119998,-3.51106 6.90619998,-4.03125 2.3642,-0.53586 3.0106997,1.96326 2.6563,1.375 -2.3521,-4.01924 -10.06119998,3.31319 -12.2186999,5.03125 3.6144999,-2.01363 4.8977999,1.60845 4.0623999,3.1875 0.3227,-1.72661 -0.7157,-5.20974 -4.0623999,-3 -0.7098,0.4686 -1.3363,0.9302 -1.9376,1.375 0.6548,-0.56846 2.4985,-2.37839 3.78129992,-3.21875 1.75799998,-1.15161 0.2005,-4.87892 -1.74999992,-5.21875 -0.1667,-0.0158 -0.3442,-0.007 -0.5313,0 0.1361,-0.0212 0.2725,-0.0445 0.4063,-0.0312 z m 2.68749992,4.53125 c -0.008,0.006 -0.0938,0.0625 -0.0938,0.0625 0.0235,0.0222 0.068,-0.002 0.0938,-0.0625 z M 92.692889,620.77724 c -0.92726,0.78115 -1.56569,1.3272 -1.59375,1.3125 -0.0797,-0.0112 -0.12478,-0.0205 -0.0625,-0.0625 0.38148,-0.2574 1.01693,-0.74263 1.65625,-1.25 z m -98.1875466,1.625 c 1.0639,-0.19951 2.2417,2.34025 1.0626,4.21875 -0.0418,0.0665 -0.0432,0.0879 -0.0313,0.0937 0.0557,-0.0417 0.1307,-0.0829 0.1875,-0.125 -0.0838,0.071 -0.1576,0.14415 -0.1875,0.15625 -0.6916,0.51758 -1.3075,0.99123 -1.8125,1.40625 0.4162,-0.34176 0.8539,-0.71204 1.125,-0.96875 1.4564,-1.37904 1.1871,-4.80865 -0.5312,-4.71875 0.0694,-0.0388 0.1165,-0.0492 0.1874,-0.0625 z m -1.2187,6.09375 c -0.6359,0.53914 -1.2295,1.0732 -1.25,1.0625 -0.0721,-0.008 -0.115,-0.0271 -0.0625,-0.0625 0.305,-0.20578 0.8004,-0.59254 1.3125,-1 z m 81.2812496,0.96875 c 0.18991,-0.0188 0.36947,-0.03 0.5625,0 -0.23284,-0.009 -0.44572,0.0149 -0.65625,0.0312 -2.80453,0.39468 -5.0807,5.72533 -2.5625,7.375 1.8205,1.19259 4.41456,3.78704 5.34375,4.59375 -0.84432,-0.62377 -1.75604,-1.28121 -2.75,-1.9375 -4.74937,-3.1359 -6.23906,1.76847 -5.78125,4.21875 -1.18554,-2.24087 0.6516,-7.3576 5.78125,-4.5 -3.06185,-2.43814 -13.97448,-12.86007 -17.3125,-7.15625 -0.50294,0.83482 0.39491,-2.69795 3.75,-1.9375 3.30013,0.748 9.6354,5.62037 9.84375,5.78125 -0.34791,-0.57667 -0.71489,-6.09666 3.6875,-6.4375 0.0323,-0.005 0.0614,-0.028 0.0937,-0.0312 z m 422.343748,2.5625 c -0.0734,0.6144 -0.11827,1.26572 -0.0937,1.96875 -0.10133,-0.66106 -0.0488,-1.3276 0.0937,-1.96875 z m -212.84375,1.65625 c -0.50395,2.40862 -0.78153,4.05095 -0.84375,4.0625 -0.14835,0.0902 -0.26617,0.14731 -0.21875,0 0.28641,-0.88904 0.67912,-2.44352 1.0625,-4.0625 z m -171.875,0.75 c 0.1169,0.0116 0.22843,0.0682 0.34375,0.0937 -0.32628,-0.0379 -0.6584,-0.0763 -1.03125,-0.0625 0.23533,-0.0366 0.45597,-0.0542 0.6875,-0.0312 z m 0.46875,0.0937 c 4.92392,0.67287 4.56467,6.95412 4.15625,7.78125 0.36646,-0.28256 7.97644,-6.09511 11.96875,-7 4.09028,-0.92709 5.20689,3.3615 4.59375,2.34375 -4.06946,-6.95367 -17.36097,5.77759 -21.09375,8.75 6.25369,-3.48378 8.47657,2.73684 7.03125,5.46875 0.55813,-2.9872 -1.27243,-8.94806 -7.0625,-5.125 -1.21794,0.80418 -2.34146,1.57981 -3.375,2.34375 1.1328,-0.98348 4.31183,-4.13983 6.53125,-5.59375 2.965,-1.94236 0.50315,-8.11519 -2.75,-8.96875 z m 4.15625,7.78125 c -0.009,0.007 -0.125,0.0937 -0.125,0.0937 0.0361,0.0341 0.0851,-0.0131 0.125,-0.0937 z m -38.093748,-6.75 c 0.20148,-0.0287 0.39667,0.015 0.59375,0.125 -2.43869,-0.12758 -2.81686,4.69922 -0.75,6.65625 0.241,0.22819 0.53333,0.52149 0.875,0.8125 -0.57808,-0.46431 -1.16141,-0.90401 -1.875,-1.4375 0.0501,0.0203 0.0463,-0.0328 -0.0312,-0.15625 -1.5618,-2.48811 -0.22288,-5.79881 1.1875,-6 z m 346.624998,0.25 c 4.19822,-0.38 6.59173,3.60076 5.375,2.53125 -10.04004,-9.0546 -24.85207,18.0378 -29.3125,24.6875 8.23249,-8.74785 14.95537,0.0842 14.03125,5.18749 -0.62446,-5.06099 -6.58757,-13.68 -13.90625,-4.62499 -1.48748,1.84036 -2.83092,3.58633 -4.0625,5.28124 -0.31476,0.52311 -0.56025,0.89208 -0.625,0.875 -0.80094,1.11996 -1.575,2.21897 -2.25,3.21875 0.28692,-0.47414 0.59916,-0.98927 0.8125,-1.375 2.81825,-5.09557 -0.94902,-14.32112 -5.625,-12.56249 2.52921,-2.69191 8.81338,3.75673 7.09375,10.40624 -0.0373,0.14439 -0.0355,0.23117 -0.0312,0.28125 0.19684,-0.27514 0.4208,-0.56274 0.625,-0.84375 1.36473,-2.26804 4.73974,-8.70384 7.5,-12.09374 3.78847,-4.6527 -3.46605,-13.35395 -9.125,-12.90625 8.3672,-1.56165 11.0219,8.90701 10.75,10.34375 0.3798,-0.54788 9.61558,-13.82514 15.5625,-17.3125 1.13829,-0.66752 2.21868,-1.00606 3.1875,-1.09375 z m -18.75,18.40625 c -0.008,0.0114 -0.125,0.1875 -0.125,0.1875 0.0702,0.0339 0.10044,-0.0577 0.125,-0.1875 z m 111.4375,-16.28125 c 2.1013,-0.10968 4.381,0.34755 6.4063,1.625 0.1829,0.11539 0.2728,0.13683 0.3125,0.125 -0.1755,-0.23557 -0.3536,-0.50848 -0.5313,-0.75 0.3826,0.44264 0.5995,0.69204 0.5625,0.75 1.1404,1.53106 2.1846,2.89812 3.1875,4.15625 -0.6355,-0.74755 -1.2492,-1.4375 -1.75,-1.96875 -4.4563,-4.72689 -15.529,-3.87891 -15.25,1.6875 -1.3753,-2.47681 2.4397,-5.38372 7.0625,-5.625 z m -411.28125,3.96875 c 1.84068,-0.34516 3.85252,4.06252 1.8125,7.3125 -0.0472,0.0753 -0.0871,0.12704 -0.0937,0.15625 0.11596,-0.0868 0.25633,-0.16219 0.375,-0.25 -0.25155,0.21548 -0.39365,0.33237 -0.375,0.25 -0.66156,0.49494 -1.27653,0.98862 -1.84375,1.4375 0.24434,-0.2141 0.49944,-0.44693 0.6875,-0.625 2.51976,-2.38587 2.06682,-8.31178 -0.90625,-8.15625 0.12013,-0.067 0.22104,-0.10199 0.34375,-0.125 z m -27.281248,1.28125 c 0.42501,0.34176 0.81439,0.65126 1.15625,0.9375 -0.38936,-0.31187 -0.7994,-0.63435 -1.15625,-0.9375 z m 72.249998,0.21875 c 0.0228,0.0151 -0.0196,0.0837 -0.125,0.1875 -5.78966,5.55805 9.62823,15.48143 13.375,18.40625 -4.82804,-5.24777 0.67412,-8.85876 3.65625,-8.09375 -3.0232,0.15369 -8.36143,3.34265 -3.3125,8.0625 1.06379,0.99445 2.08087,1.86288 3.0625,2.6875 -1.21593,-0.86868 -5.01333,-3.21939 -6.9375,-5.03125 -2.62201,-2.46896 -8.18017,1.57486 -8.03125,4.96875 0.0402,0.30286 0.0949,0.60626 0.1875,0.93749 -0.12542,-0.3053 -0.17332,-0.61426 -0.1875,-0.93749 -0.67837,-5.10859 5.69358,-6.24855 6.5625,-6.03125 -0.2625,-0.21134 -7.77701,-6.28707 -9.59375,-9.96875 -1.61763,-3.27815 1.18405,-5.29358 1.34375,-5.1875 z m 8.25,15.15625 c 0.005,0.004 0.0937,0.0625 0.0937,0.0625 0.0236,-0.0412 -0.0137,-0.0425 -0.0937,-0.0625 z m 235.8125,-14.6875 c -0.54504,0.10515 -1.09347,0.2556 -1.6875,0.46875 0.53668,-0.26708 1.10119,-0.41533 1.6875,-0.46875 z m 132.3125,0.125 c 0.6901,0.81593 1.4152,1.70357 2.125,2.59375 -0.671,-0.80521 -1.3216,-1.58842 -2.125,-2.59375 z m -447.343748,0.21875 c 0.72786,0.57919 1.44159,1.11383 1.875,1.40625 0.0746,0.0503 0.009,0.0824 -0.0937,0.0937 -0.0315,0.0165 -0.72711,-0.61334 -1.78125,-1.5 z m 449.843748,2.84375 c 1.9303,2.29904 3.3182,3.86747 3.2813,3.9375 -0.028,0.21388 -0.078,0.35 -0.1875,0.1875 -0.6441,-0.9591 -1.8247,-2.51791 -3.0938,-4.125 z m -364.1875,17.625 c 0.70142,-0.0465 1.43181,0.0371 2.15625,0.28125 0.1678,0.0565 0.22562,0.0534 0.1875,0 0.63321,0.52578 1.24583,1.02363 1.8125,1.46874 -0.26304,-0.18607 -0.56587,-0.35975 -0.78125,-0.5 -2.8967,-1.88615 -8.52915,-0.0624 -7.6875,2.78125 -1.20727,-1.31009 1.27303,-3.8298 4.3125,-4.03124 z m -41.90625,3.15624 c 2.46034,0.67082 1.85503,3.8701 1.59375,4.25 0.10654,-0.062 1.58058,-0.89485 3.25,-1.65625 1.17691,-0.53677 2.41603,-1.04472 3.28125,-1.125 2.13769,-0.19837 2.431,2.0886 2.1875,1.53125 -0.80136,-1.90006 -3.10819,-1.47964 -5.46875,-0.40625 -2.36056,1.07339 -4.76633,2.77611 -5.8125,3.40625 3.40588,-1.35204 4.10286,1.99085 3.1875,3.28125 0.48206,-1.47902 -0.0568,-4.64886 -3.25,-3.09375 -0.67197,0.32725 -1.26814,0.64966 -1.84375,0.96875 0.64039,-0.42379 2.46428,-1.81602 3.6875,-2.40625 1.63514,-0.78901 0.78374,-4.10314 -0.8125,-4.75 z m 1.59375,4.25 c -0.004,0.002 -0.0625,0.0312 -0.0625,0.0312 0.0156,0.0192 0.0377,0.005 0.0625,-0.0312 z m 46.53125,-4.09375 c 1.33823,0.98768 2.26058,1.64575 2.25,1.6875 0.0123,0.11389 0.0142,0.19529 -0.0625,0.125 -0.46705,-0.42794 -1.29967,-1.1188 -2.1875,-1.8125 z m -51.59375,3.21875 c 0.9572,-0.0527 1.65792,2.29875 0.40625,3.8125 -0.058,0.0701 -0.0639,0.10222 -0.0312,0.0937 -0.64511,0.36231 -1.20534,0.70039 -1.6875,1 0.38343,-0.23997 0.77629,-0.50249 1.03125,-0.6875 1.4377,-1.04327 1.58183,-4.0686 0.0625,-4.1875 0.0654,-0.026 0.15494,-0.0277 0.21875,-0.0312 z m -35.156248,1.125 c -0.26455,0.17974 -0.48527,0.36995 -0.6875,0.5625 0.19125,-0.22566 0.4207,-0.42377 0.6875,-0.5625 z m -0.84375,0.75 c -1.52429,2.17752 -0.17731,7.11811 2.59375,6.96875 2.121977,-0.11437 5.677437,0.40259 6.874997,0.5 -1.02964,-0.003 -2.11342,0.004 -3.28125,0.0625 -5.550117,0.27901 -3.902077,4.99312 -2.125,6.65625 -2.228547,-1.07757 -3.750877,-6.15711 1.9375,-6.875 -3.818907,-0.1478 -18.421907,-2.04293 -17.749997,4.375 0.087,0.94765 -1.23574,-2.34574 1.84375,-3.6875 3.00616,-1.30981 10.66273,-1.16475 11.03125,-1.15625 -0.65974,-0.35778 -3.71275,-4.09508 -1.125,-6.84375 z m 1.125,6.84375 c 0.0682,0.037 0.11761,0.0405 0.125,0 0,0 -0.11601,2.1e-4 -0.125,0 z m 531.937498,-6.84375 c 0.045,-0.0161 0.1074,0.10843 0.1875,0.21875 0.061,0.0405 -0.3734,1.85562 -0.9062,4.4375 -0.2828,1.67495 -0.6081,3.35406 -0.9375,4.875 -0.2477,1.42175 -0.4804,2.96437 -0.7188,4.625 0.094,-0.0332 -3e-4,0.39948 -0.1562,1.09375 -0.3101,2.27438 -0.5952,4.69519 -0.8125,7.28125 -1.0624,12.64127 10.1327,10.32532 14.4375,6.8125 -3.1179,4.7129 -15.0492,6.61926 -14.9375,-6.46875 -1.4997,8.5945 -10.2558,41.06173 4.4687,41.5 2.1705,0.0923 -5.7167,2.09497 -7.8125,-5.28125 -2.0518,-7.22117 0.6642,-24.63751 0.7813,-25.375 -0.8849,1.3391 -10.7355,7.53643 -16.1563,0.1875 4.2244,4.46646 16.3246,3.01993 16.8438,-3.4375 0.3827,-4.7608 2.5597,-12.4244 3.1875,-15.21875 0.049,-0.36074 0.1058,-0.74244 0.1562,-1.09375 -0.04,0.0141 -0.1195,0.10402 -0.2187,0.28125 -3.6568,6.52927 -13.4439,6.83689 -13.4063,2.8125 2.3552,4.90734 12.2538,0.47774 13.875,-5.65625 0.1503,-0.56855 0.3068,-1.31507 0.4688,-2.0625 0.349,-2.00393 0.6446,-3.45618 0.9375,-4.875 0.3033,-1.79713 0.5588,-3.49559 0.6562,-4.53125 0.01,-0.0666 0.038,-0.1163 0.062,-0.125 z m -6.4062,33.71875 c 0.081,-0.12332 0.1131,-0.22338 0.031,-0.25 0,0 -0.029,0.23417 -0.031,0.25 z m -217.25005,-33.625 c -0.60125,0.98334 -1.2817,2.04749 -2,3.125 0.61327,-0.9647 1.18733,-1.91619 2,-3.125 z m -301.687501,1.625 c -1.99252,1.30979 0.52341,5.34288 3.28125,5.6875 0.33346,0.0417 0.73144,0.0928 1.1875,0.125 -0.73323,-0.0319 -1.45823,-0.0552 -2.34375,-0.0625 0.0511,-0.013 0.007,-0.0414 -0.125,-0.0937 -3.04863,-1.20516 -3.7493,-5.43693 -2,-5.65625 z m 5.90625,5.875 c 0.97337,0.0405 1.924651,0.0532 2.468751,0.0312 0.0842,-0.003 0.0365,0.0608 -0.0312,0.125 -0.0159,0.0327 -0.98028,-0.0643 -2.437501,-0.15625 z m 116.437501,1.9375 c -0.51168,1.0618 -1.04259,2.24137 -1.59375,3.46875 -0.0255,-0.0255 -0.0949,0.0338 -0.25,0.1875 -4.76252,4.72027 -13.2766,2.58193 -12.25,-0.875 0.81625,4.80856 10.43208,3.44517 13.34375,-1.4375 0.21766,-0.365 0.4948,-0.87558 0.75,-1.34375 z m -2,4.40625 c -0.82757,1.87959 -1.6754,3.86136 -2.5,6.03125 -4.0379,10.62547 6.17448,11.43088 10.75,9.46875 -3.84963,3.28897 -14.61069,1.96385 -11.28125,-9.28125 -3.41485,7.03194 -18.98015,32.82872 -6.40625,36.84375 1.84661,0.61579 -5.42334,0.37086 -5.40625,-6.5 0.0167,-6.7179 6.63847,-20.98416 6.9375,-21.625 -1.13894,0.94866 -11.27609,3.81634 -14.03125,-4.0625 -0.24327,-0.52076 -0.39883,-1.07227 -0.4375,-1.65625 0.11173,0.60252 0.25947,1.14715 0.4375,1.65625 2.35161,5.03405 13.33773,6.90935 15.40625,1.40625 1.50489,-4.00366 5.29799,-10.02652 6.53125,-12.28125 z m -7.90625,14.9375 c 0.10681,-0.089 0.15922,-0.17456 0.0937,-0.21875 0,0 -0.0869,0.20416 -0.0937,0.21875 z m -66.8125,-9.4375 c 0.081,-0.0742 0.0784,0.031 0.0625,0.15625 0.01,0.0388 -0.82565,0.60826 -2,1.46875 -0.60999,0.48114 -1.24367,0.96773 -1.84375,1.40625 0.74127,-0.57394 1.28539,-0.99712 1.84375,-1.40625 0.79005,-0.62315 1.51483,-1.23771 1.9375,-1.625 z m -12.6875,1.125 c -0.84165,2.84364 4.75955,4.66741 7.65625,2.78125 0.21686,-0.1412 0.51615,-0.34365 0.78125,-0.53125 -0.56667,0.44511 -1.17929,0.94296 -1.8125,1.46875 0.0895,10e-4 -0.071,0.12658 -0.375,0.34375 0.12719,-0.1069 0.24991,-0.23988 0.375,-0.34375 -0.0298,-3.8e-4 -0.1036,0.003 -0.1875,0.0312 -3.86368,1.30201 -7.92337,-2.13758 -6.4375,-3.75 z m -8.53125,3.15625 c -0.0936,0.33506 -0.1474,0.66272 -0.1875,0.96875 -0.13484,3.39132 5.41244,7.40345 8.03125,4.9375 1.87335,-1.76401 5.46733,-3.98593 6.78125,-4.90625 -0.93733,0.79124 -1.89667,1.64998 -2.90625,2.59375 -5.04893,4.71985 0.32055,7.87756 3.34375,8.03125 -2.98213,0.76501 -8.51554,-2.84598 -3.6875,-8.09375 -3.74677,2.92482 -19.13341,12.8482 -13.34375,18.40625 0.84329,0.8305 -3.09872,-1.25354 -1.25,-5 1.81718,-3.68256 9.36595,-9.76019 9.625,-9.96875 -0.75726,0.24853 -7.2691,-0.84599 -6.59375,-6 0.013,-0.32751 0.0605,-0.65954 0.1875,-0.96875 z m 191.28125,5.59375 c -0.17089,0.99712 -0.33567,2.1073 -0.5,3.25 0.0453,0.0251 3.7e-4,0.2882 -0.0937,0.71875 0.0309,-0.22438 0.031,-0.46792 0.0625,-0.6875 -0.0317,0.0279 -0.095,0.0782 -0.15625,0.1875 -2.8203,5.03574 -10.37278,5.29136 -10.34375,2.1875 1.81653,3.78485 9.46838,0.38713 10.71875,-4.34375 0.0951,-0.35969 0.21068,-0.85564 0.3125,-1.3125 z m 285.96875,2.75 c 0.3238,0.64918 0.6913,1.2362 1.0625,1.75 -0.4618,-0.50684 -0.8266,-1.09445 -1.0625,-1.75 z m -286.59375,1.34375 c -0.24048,1.76098 -0.4566,3.62119 -0.625,5.625 -0.81935,9.7497 7.80491,7.99053 11.125,5.28125 -2.40459,3.63483 -11.61735,5.09426 -11.53125,-5 -1.15663,6.62859 -7.91889,31.66194 3.4375,32 1.67399,0.0714 -4.41482,1.59524 -6.03125,-4.09375 -1.58358,-5.57339 0.53758,-19.01183 0.625,-19.5625 -0.6888,1.04176 -8.40589,5.89326 -12.5625,0 3.14036,3.60707 12.68821,2.54417 13.09375,-2.5 0.29584,-3.68016 1.98911,-9.60726 2.46875,-11.75 z m -3,14.25 c 0.0629,-0.0952 0.0944,-0.16696 0.0312,-0.1875 0,0 -0.0294,0.17608 -0.0312,0.1875 z m -241.968748,-1.5 c -0.96505,15.63691 -31.1762,25.08472 1.75,46.5 0.11966,0.0778 0.59602,5.33045 0.71875,5.40625 0.0264,0.0161 1.43587,0.23115 1.84375,-0.125 0.68652,-0.59949 -1.31324,-5.57103 -1.25,-5.6875 -0.0743,0.0975 -0.14332,0.18306 -0.21875,0.28125 0.094,-0.16979 0.19623,-0.38139 0.1875,-0.34375 -0.003,-0.002 0.0326,0.06 0.0312,0.0625 17.93378,-23.52677 4.6567,-28.18973 -3.0625,-46.09375 z m 228.656248,0.25 c 0.21887,0.43878 0.44022,0.82935 0.6875,1.1875 -0.29753,-0.35637 -0.52717,-0.74199 -0.6875,-1.1875 z m -227.218748,11 c 0.64538,-0.034 0.97564,0.12389 0.53125,0.15625 -8.04246,0.48256 -2.74291,18.07623 -1.78125,22.75 -0.277,-7.15323 6.3115,-6.30631 8.09375,-3.78125 -2.41135,-1.8494 -8.5706,-2.92455 -7.78125,3.96875 0.15677,1.36909 0.33094,2.63591 0.53125,3.84375 0.0856,0.32639 0.13172,0.60889 0.125,0.6875 0.17628,1.01086 0.35482,1.93542 0.53125,2.78125 -0.12394,-0.51316 -0.26333,-0.99881 -0.375,-1.375 -0.98749,-3.32663 -6.44967,-5.56542 -7.65625,-2.84375 -0.087,-2.19947 5.26816,-2.19663 7.375,1.3125 0.0915,0.1524 0.11939,0.19065 0.125,0.125 -0.0388,-0.22274 -0.0869,-0.45777 -0.125,-0.6875 -0.41508,-1.58172 -1.71732,-5.60592 -2,-8.15625 -0.39044,-3.52235 -7.01561,-4.107 -9.25,-1.59375 2.85162,-4.12057 8.36947,-0.85937 8.84375,-0.15625 -0.0708,-0.3729 -1.84784,-9.88716 -0.84375,-13.875 0.64003,-2.54193 2.58061,-3.09964 3.65625,-3.15625 z m 371.937498,2.4375 c 0.0414,-0.0148 0.11409,0.0864 0.1875,0.1875 0.0561,0.0374 -0.31759,1.72272 -0.8125,4.125 -0.27287,1.6112 -0.59113,3.22937 -0.90625,4.65625 0.3308,-1.91933 0.62778,-3.30456 0.90625,-4.65625 0.28313,-1.67178 0.50326,-3.25716 0.59375,-4.21875 0.006,-0.061 0.009,-0.0858 0.0312,-0.0937 z m -1.5625,9.09375 c -0.20341,1.18688 -0.39817,2.48338 -0.59375,3.84375 0.0753,-0.0158 0.0271,0.32225 -0.0937,0.875 0.0392,-0.28537 0.0537,-0.59615 0.0937,-0.875 -0.0362,0.008 -0.0929,0.11227 -0.1875,0.28125 -3.35256,5.98615 -12.34699,6.28342 -12.3125,2.59375 2.15934,4.49918 11.23241,0.43625 12.71875,-5.1875 0.11159,-0.4222 0.25554,-0.99612 0.375,-1.53125 z m -0.71875,4.84375 c -0.28607,2.09439 -0.5497,4.30407 -0.75,6.6875 -0.97398,11.58979 9.30328,9.50187 13.25,6.28125 -2.85846,4.32086 -13.85238,6.06187 -13.75,-5.9375 -1.37493,7.87962 -9.37472,37.62942 4.125,38.03125 1.98994,0.0847 -5.26601,1.91891 -7.1875,-4.84375 -1.88828,-6.6458 0.66097,-22.72142 0.75,-23.28125 -0.76244,1.2074 -9.93473,6.99443 -14.90625,0.0937 3.79081,4.20955 15.02042,2.90303 15.5,-3.0625 0.35243,-4.38403 2.40369,-11.43557 2.96875,-13.96875 z m -3.5625,16.9375 c 0.0672,-0.10638 0.10361,-0.16397 0.0312,-0.1875 0,0 -0.0297,0.17765 -0.0312,0.1875 z m -377.843748,-16 c -0.0747,0.11383 -0.14808,0.25032 -0.21875,0.375 0.0737,-0.12729 0.12643,-0.25979 0.21875,-0.375 z m 361.999998,14.5 c 0.27995,0.56124 0.55618,1.08065 0.875,1.53125 -0.38618,-0.44357 -0.67223,-0.96779 -0.875,-1.53125 z m -349.593748,0.5 c 0.40306,1.73729 0.72404,2.88024 0.6875,2.90625 -0.0688,0.10503 -0.11146,0.17132 -0.125,0.0625 -0.0826,-0.66288 -0.31965,-1.80013 -0.5625,-2.96875 z"
         style="fill:url(#linearGradient3883);fill-opacity:1;fill-rule:evenodd;stroke:#bacb73;stroke-opacity:1"
         inkscape:connector-curvature="0" />
    </g>
  </g>
</svg>
